<svg viewBox="-21.55916450000001 -12.431805294117623 588.8223185 578.7219705882353" xmlns="http://www.w3.org/2000/svg" style="max-height: 500px" width="588.8223185" height="578.7219705882353"><path fill="#E2001A" d="M683.243 397.421h.87l28.915 119.143h48.485L791.3 397.421h.433l.87 119.143h52.18V364.807h-85.879l-19.568 83.054h-.435l-19.784-83.054h-86.096v151.756h49.569zm233.887 86.314h49.136l10.003 32.828h112.036l26.525-51.312 28.48 51.312h67.615l-54.785-77.834 50.873-73.922h-61.309l-24.354 44.789-22.611-44.789h-67.182l47.832 73.922-46.197 66.153-49.97-140.075h-80.226L849.73 516.563h58.049zm24.786-86.314h.434l16.524 49.788h-33.699zm517.524 76.965c0-15.219-13.043-31.743-34.131-34.568v-.436c20.219-5.221 31.309-16.306 31.309-37.176 0-28.92-25.873-37.398-52.18-37.398h-95.447v151.756h88.053c31.525-.001 62.396-3.915 62.396-42.178zm-95.66-80.878h15.871c10.436 0 20.002 3.478 20.002 14.783 0 11.522-11.086 14.568-21.305 14.568h-14.568zm0 91.75v-31.093h15.654c10.871 0 21.74 2.392 21.74 15.438 0 11.741-11.523 15.655-22.176 15.655zm180.014-165.89h-39.135v33.916h39.135zm57.398 0h-39.137v33.916h39.137zm-48.701 199.804c53.049 0 84.791-26.739 84.791-78.487 0-50.874-31.742-78.486-84.791-78.486-53.049 0-84.139 27.612-84.139 78.486 0 51.747 31.09 78.487 84.139 78.487zm0-120.448c22.176 0 23.697 27.828 23.916 41.96-.219 16.308-.869 41.963-23.916 41.963-20.871 0-23.266-25.655-23.266-41.963 0-14.131 1.743-41.96 23.266-41.96zm186.871 120.448c23.916 0 42.832-2.39 62.834-8.263V439.6h-50.004v40.437c-3.48 1.307-8.264 1.307-12.395 1.307-23.264 0-31.742-18.263-31.742-39.137 0-27.612 19.131-42.179 48.051-42.179 16.303 0 31.74 3.913 40.002 8.698v-40.874c-14.568-3.477-28.264-5.654-56.746-5.654-48.699 0-90.879 25.437-90.879 76.314 0 54.137 40.442 80.66 90.879 80.66zm143.209-47.395v-106.97h-58.266v151.756h129.797v-44.786zM633.008 604.906h1319.44V592.5H633.008z"/><path d="M632.694 727.679h8.976V699.13h23.253v-7.901H641.67v-18.313h24.331v-7.9h-33.307zm66.706-46.865c-14.006 0-23.342 10.059-23.342 23.973 0 13.106 9.516 23.972 23.342 23.972 13.735 0 23.251-10.865 23.251-23.972.001-13.914-9.336-23.973-23.251-23.973zm0 41.119c-9.965 0-14.363-8.979-14.363-17.146 0-8.709 5.296-17.147 14.363-17.147 8.977 0 14.274 8.438 14.274 17.147.001 8.168-4.398 17.146-14.274 17.146zm44.412-32.946h-.179v-7.093h-7.902v45.784h8.439V706.85c0-11.492 4.938-18.673 12.48-18.673 1.437 0 3.141.179 4.669.81v-7.542c-1.795-.361-3.053-.631-5.566-.631-4.848 0-9.697 3.414-11.941 8.173zm40.82 24.776v-25.045h12.121v-6.823h-12.121v-13.287l-8.439 2.692v10.595h-10.324v6.823h10.324v26.752c0 9.158 5.388 13.289 14.096 13.289 2.693 0 5.298-.719 7.182-1.259v-7.181c-1.258.807-3.142 1.614-5.746 1.614-3.86 0-7.093-2.872-7.093-8.17zm29.33-20.557c0-3.771 3.77-5.566 8.079-5.566 1.976 0 7.002 1.167 8.889 2.334l.717-7.362c-3.321-.987-6.553-1.797-10.503-1.797-9.068 0-16.16 4.58-16.16 14.095 0 12.841 19.84 12.122 19.84 20.472 0 4.938-4.759 6.553-8.621 6.553-2.423 0-7.182-1.078-10.504-3.233l-.447 7.545c3.859 2.063 8.26 2.514 12.568 2.514 8.169 0 15.981-4.492 15.981-14.277.002-14.636-19.839-11.944-19.839-21.278zm52.31 28.727c-10.863 0-15.263-8.979-15.263-17.146 0-8.709 5.298-17.147 14.725-17.147 2.693 0 5.925.627 9.158 1.974l.717-7.002c-2.423-.987-6.822-1.797-10.235-1.797-14.004 0-23.342 10.059-23.342 23.973 0 13.106 9.516 23.972 23.342 23.972 3.053 0 7.093-.271 10.595-1.888l-.628-7.54c-2.604 1.704-6.195 2.601-9.069 2.601zm44.503-41.119c-6.375 0-11.67 2.783-14.723 7.631h-.18v-28.099h-8.441v67.332h8.441v-21.186c0-11.135 4.309-18.854 13.916-18.854 7.362.446 9.696 5.655 9.696 16.338v23.701h8.439v-27.203c0-12.296-5.298-19.66-17.148-19.66zm41.36 8.173h-.18v-7.093h-7.899v45.784h8.439V706.85c0-11.492 4.936-18.673 12.478-18.673 1.436 0 3.143.179 4.668.81v-7.542c-1.795-.361-3.053-.631-5.566-.631-4.847 0-9.695 3.414-11.94 8.173zm29.149-17.328h9.518v-9.516h-9.518zm.539 56.02h8.439v-45.784h-8.439zm37.858-13.916v-25.045h12.119v-6.823h-12.119v-13.287l-8.439 2.692v10.595h-10.324v6.823h10.324v26.752c0 9.158 5.387 13.289 14.094 13.289 2.695 0 5.299-.719 7.184-1.259v-7.181c-1.256.807-3.143 1.614-5.747 1.614-3.862 0-7.092-2.872-7.092-8.17zm36.689 0v-25.045h12.121v-6.823h-12.121v-13.287l-8.438 2.692v10.595h-10.324v6.823h10.324v26.752c0 9.158 5.385 13.289 14.094 13.289 2.693 0 5.297-.719 7.184-1.259v-7.181c-1.256.807-3.143 1.614-5.746 1.614-3.86 0-7.094-2.872-7.094-8.17zm74.998-32.949c-7.992 0-12.57 3.145-15.174 7.363h-.18v-27.831h-8.438v67.332h8.08v-6.464h.178c2.246 3.413 7.453 7.544 15.623 7.544 13.824 0 19.66-12.211 19.66-24.781.001-12.297-6.462-23.163-19.749-23.163zm-1.885 41.119c-9.518 0-13.469-9.428-13.469-17.057 0-8.528 4.4-17.237 13.557-17.237 9.158 0 12.75 8.709 12.57 16.969.18 7.181-3.591 17.325-12.658 17.325zm70.358-22.176c0-12.477-5.297-18.942-18.404-18.942-5.836 0-10.865 1.797-15.084 4.313l.451 7.179c3.41-2.872 8.529-4.667 13.285-4.667 8.441 0 11.313 4.04 11.313 11.938-3.322-.179-5.656-.179-8.977-.179-8.713 0-21.279 3.594-21.279 15.082 0 9.968 6.914 14.277 16.789 14.277 7.721 0 12.211-4.223 14.184-7.004h.182v5.924h7.9c-.182-1.346-.359-3.77-.359-8.979v-18.942zm-8.44 10.146c0 6.823-4.398 12.03-12.748 12.03-3.861 0-8.529-2.603-8.529-7.452 0-8.078 11.313-8.799 15.891-8.799 1.795 0 3.588.183 5.387.183v4.038zm56.531-6.823c0 11.132-4.309 18.854-13.916 18.854-7.361-.448-9.697-5.655-9.697-16.34v-23.699h-8.439v27.203c0 12.296 5.297 19.661 17.146 19.661 6.375 0 12.48-3.145 14.994-8.35h.18v7.27h8.172v-45.784h-8.439v21.185zm36.782 10.683v-25.045h12.119v-6.823h-12.119v-13.287l-8.439 2.692v10.595h-10.326v6.823h10.326v26.752c0 9.158 5.383 13.289 14.096 13.289 2.691 0 5.293-.719 7.18-1.259v-7.181c-1.256.807-3.143 1.614-5.746 1.614-3.861 0-7.091-2.872-7.091-8.17zm100.941-32.949c-4.129 0-11.043 2.337-14.186 8.892-2.426-6.197-7.721-8.892-13.018-8.892-6.734 0-11.311 2.426-14.543 7.725h-.18v-6.645h-7.902v45.784h8.439v-23.07c0-8.53 3.412-16.969 12.031-16.969 6.822 0 8.17 7.091 8.17 12.749v27.29h8.439v-23.07c0-8.53 3.41-16.969 12.029-16.969 6.824 0 8.17 7.091 8.17 12.749v27.29h8.439v-29.356c0-9.966-4.216-17.508-15.888-17.508zm67.486 18.943c0-12.477-5.299-18.942-18.406-18.942-5.834 0-10.863 1.797-15.082 4.313l.449 7.179c3.412-2.872 8.529-4.667 13.287-4.667 8.439 0 11.313 4.04 11.313 11.938-3.322-.179-5.656-.179-8.979-.179-8.707 0-21.277 3.594-21.277 15.082 0 9.968 6.912 14.277 16.787 14.277 7.723 0 12.211-4.223 14.186-7.004h.18v5.924h7.9c-.178-1.346-.357-3.77-.357-8.979v-18.942zm-8.439 10.146c0 6.823-4.4 12.03-12.748 12.03-3.861 0-8.529-2.603-8.529-7.452 0-8.078 11.311-8.799 15.891-8.799 1.795 0 3.588.183 5.387.183v4.038zm47.822-29.089c-6.375 0-12.48 3.145-14.994 8.352h-.178v-7.271h-8.17v45.784h8.438v-21.186c0-11.135 4.309-18.854 13.916-18.854 7.361.446 9.697 5.655 9.697 16.338v23.701h8.439v-27.203c.001-12.297-5.298-19.661-17.148-19.661zm95.645 18.943c0-12.477-5.295-18.942-18.404-18.942-5.834 0-10.861 1.797-15.084 4.313l.449 7.179c3.414-2.872 8.533-4.667 13.289-4.667 8.439 0 11.314 4.04 11.314 11.938-3.324-.179-5.658-.179-8.98-.179-8.709 0-21.277 3.594-21.277 15.082 0 9.968 6.912 14.277 16.789 14.277 7.721 0 12.211-4.223 14.184-7.004h.18v5.924h7.902c-.18-1.346-.361-3.77-.361-8.979v-18.942zm-8.436 10.146c0 6.823-4.4 12.03-12.748 12.03-3.863 0-8.531-2.603-8.531-7.452 0-8.078 11.311-8.799 15.891-8.799 1.795 0 3.59.183 5.389.183v4.038zm56.53-6.823c0 11.132-4.309 18.854-13.916 18.854-7.361-.448-9.697-5.655-9.697-16.34v-23.699h-8.439v27.203c0 12.296 5.299 19.661 17.148 19.661 6.373 0 12.48-3.145 14.992-8.35h.18v7.27h8.17v-45.784h-8.438zm29.416-9.874c0-3.771 3.771-5.566 8.082-5.566 1.973 0 7.002 1.167 8.889 2.334l.719-7.362c-3.322-.987-6.555-1.797-10.508-1.797-9.066 0-16.158 4.58-16.158 14.095 0 12.841 19.842 12.122 19.842 20.472 0 4.938-4.758 6.553-8.619 6.553-2.424 0-7.184-1.078-10.502-3.233l-.451 7.545c3.861 2.063 8.26 2.514 12.57 2.514 8.168 0 15.979-4.492 15.979-14.277 0-14.636-19.843-11.944-19.843-21.278zm59.377 34.473h8.977v-62.664h-8.977zm57.968-39.501h-.18c-2.604-4.219-7.184-7.363-15.174-7.363-13.287 0-19.75 10.865-19.75 23.163 0 12.481 5.834 24.781 19.662 24.781 8.17 0 13.377-4.131 15.621-7.544h.178v6.464h8.082v-67.332h-8.439zm-13.468 33.755c-9.066 0-12.838-10.145-12.658-17.325-.18-8.35 3.412-16.969 12.568-16.969 9.16 0 13.559 8.709 13.559 17.237-.001 7.63-3.952 17.057-13.469 17.057zm56.443-41.119c-12.928 0-21.457 9.606-21.457 23.163 0 14.905 7.451 24.781 23.699 24.781 7.543 0 11.225-1.799 14.457-2.966v-8.436c-2.066 1.704-8.529 4.576-14.096 4.576-7.992 0-15.084-6.195-15.084-15.262h32.682c0-14.721-4.937-25.856-20.201-25.856zm-12.481 19.575c.629-5.926 4.043-12.749 12.301-12.749 7.273 0 11.402 5.745 11.402 12.749zm64.164-19.575c-12.93 0-21.457 9.606-21.457 23.163 0 14.905 7.451 24.781 23.699 24.781 7.543 0 11.223-1.799 14.455-2.966v-8.436c-2.064 1.704-8.529 4.576-14.094 4.576-7.992 0-15.082-6.195-15.082-15.262h32.678c.001-14.721-4.937-25.856-20.199-25.856zm-12.478 19.575c.627-5.926 4.039-12.749 12.297-12.749 7.271 0 11.402 5.745 11.402 12.749zm69.098-19.575c-6.375 0-12.479 3.145-14.992 8.352h-.182v-7.271h-8.17v45.784h8.441v-21.186c0-11.135 4.309-18.854 13.916-18.854 7.361.446 9.695 5.655 9.695 16.338v23.701h8.441v-27.203c.001-12.297-5.298-19.661-17.149-19.661zm33.548 36.81v10.055h10.055v-10.055z"/><path d="M12.325 12.356H539.51v527.121H12.325z" fill="#FFF"/><path fill="#E2001A" d="M0 0v551.833h551.834V0zm539.509 539.477H12.325V12.356H539.51v527.121z"/><path fill="#E2001A" d="M321.238 363.685V61.515H275.93v302.166H37.037v151.083h477.771V363.685zm-45.307 138.723h-45.307v-93.416h-45.307v93.416h-45.308v-93.416H94.701v93.416H49.392V376.042H275.93v126.366zm193.579-32.95H321.234V408.99H469.51z"/></svg>